<svg xmlns="http://www.w3.org/2000/svg" viewBox="0 0 118 60"><path d="M61 52c1.7-.4 2.8-1.4 2.8-3.1 0-2.1-1-3.8-5.7-3.8h-7v14.5h7.1c5.1 0 6.1-2 6.1-4.3 0-1.8-1.4-3-3.3-3.3m-5.5-3.6h2c1.1 0 1.7.4 1.7 1.3s-.6 1.4-1.9 1.4h-1.9v-2.7zm2.1 8h-2.1v-2.7h2.1c1.3 0 2.1.3 2.1 1.3-.1.9-.7 1.4-2.1 1.4m13.8-11.3l-5 14.5h4.5l.9-2.7h4.9l.9 2.7h4.5l-4.9-14.5h-5.8zm1.2 8.4l1.6-5.1 1.5 5.1h-3.1zm22.6-.2L90 45.1h-4.9v14.5h4.3v-8.2l5.2 8.4h4.9V45.1h-4.3zm22.4-8.2h-5.1l-4.2 6.2v-6.2h-4.6v14.5h4.6v-6.1l4.1 6.1h5.3l-5.3-7.5z" fill="#2d1b46"/><path d="M110.5 38h7.2L108 26.6l8.8-12.1h-7c-1.1 0-2.2.5-2.9 1.4l-6 7.5V1.5h-3.5c-.7 0-1.4.1-2 .5C94 2.8 93 4.4 93 6.1V38h8.1v-8.6l6 7c.9 1 2.1 1.6 3.4 1.6M37.7 13.5c-2.5 0-4.4 1-6.6 2.8l-.4.3V1.5h-3.5c-1.2 0-2.4.5-3.2 1.3-.9.9-1.3 2-1.3 3V38h8.1V23.5l.1-.1c.8-.6 2.1-1.4 3.7-1.4 1.4 0 3.6.4 3.6 3.2V38h8.1V22.8c0-5.7-3.3-9.3-8.6-9.3m34.9 10c.8-.6 2.1-1.5 3.7-1.5 1.7 0 3.8.5 3.8 3.2V38h8.1V22.8c0-5.7-3.3-9.3-8.6-9.3-2.5 0-4.3 1-6.5 2.8l-.2.2-1-1.5-7.3-.1V38h8.1V23.5zm-55.1 7.8c-.5.3-1.9.8-3.7.6-1.3-.2-2.1-1-2.1-2.3V16.2H18v-7h-6.4V1.5H8.1c-2.5 0-4.6 2-4.6 4.5 0 .3 0 1.6-.1 3.2H.2v7h3.1v1.2l-.2 10.5c-.1 3.2.3 6.5 2.7 8.9 2.5 2.7 7 2.4 10.4 1.2 1.2-.4 2.3-1 3.3-1.7l-2-5zm37.6-21.1c2.7 0 5-2.2 5-5s-2.2-5-5-5c-2.7 0-5 2.2-5 5s2.3 5 5 5m-4 9.3V38h8.2V15h-3.7c-2.5 0-4.5 2-4.5 4.5" fill="#a40064"/></svg>